<?xml version="1.0" encoding="UTF-8"?>
<svg width="64" height="64" viewBox="0 0 64 64" fill="none" xmlns="http://www.w3.org/2000/svg">
  <!-- Pin base -->
  <path d="M32 4C20.954 4 12 12.954 12 24C12 35.046 32 60 32 60C32 60 52 35.046 52 24C52 12.954 43.046 4 32 4Z" fill="#424242"/>
  <!-- Pin inner -->
  <path d="M32 8C23.164 8 16 15.164 16 24C16 32.837 32 52 32 52C32 52 48 32.837 48 24C48 15.164 40.837 8 32 8Z" fill="#616161"/>
  <!-- Elephant ears suggestion -->
  <path d="M28 20C28 22 26 24 24 24C26 24 28 26 28 28" stroke="#FFFFFF" stroke-width="1.5"/>
  <path d="M36 20C36 22 38 24 40 24C38 24 36 26 36 28" stroke="#FFFFFF" stroke-width="1.5"/>
  <!-- Pin center -->
  <circle cx="32" cy="24" r="6" fill="#FFFFFF"/>
</svg> 